<svg fill="none" height="45" viewBox="0 0 77 45" width="77" xmlns="http://www.w3.org/2000/svg"><g fill="#ba0c2f"><path d="m7.97556 24.9274c-.00676 1.3381-.03245 2.6235.00158 3.8985.04033 4.2495 3.51796 7.6615 7.76736 7.6209 4.2494-.0403 7.6614-3.5179 7.6209-7.7673-.0007-.0541-.0016-.1084-.0034-.1625.009-6.6595.009-13.3191 0-19.97818v-3.88052h4.8667l3.8805-3.880529h-12.8184v7.761049c-.0027 6.47318-.0027 12.94658 0 19.41978 0 .3959.0079.7997-.027 1.1957-.1954 1.9896-1.9666 3.4442-3.9563 3.2489-1.7717-.174-3.154-1.6104-3.2599-3.3875-.0466-1.2949-.0166-2.5929-.0205-3.8891v-.7626c0-.0025-.0011-.0047-.0013-.0072v-3.4954l-4.05001 4.0658z"/><path d="m64.5114 33.1799h-5.515v-.0047h-6.5573c.2615-.3714.4435-.6335.6288-.8933 1.424-1.9846 2.8446-4.8139 4.262-6.8028 2.423-3.3557 3.4193-7.5337 2.7718-11.6218-1.1815-8.00961-8.0869-13.9223367-16.183-13.85675987-8.9606.07256267-16.1657 7.39552987-16.0932 16.35615987-.0205 4.1394.0145 8.2789-.0126 12.4183.0007 6.5417-5.1772 11.9102-11.7146 12.1462-6.65704.2404-12.25653-4.9206-12.57721-11.5553l-3.52109 3.5211c1.84719 7.1005 8.31113 12.1689 15.8036 12.1125 8.9502-.0671 16.1512-7.3772 16.0841-16.3275.0173-4.1647-.0271-8.3296.0173-12.4936.003-.8525.0954-1.7023.2759-2.5354 1.4228-6.56625 7.8992-10.73567 14.4652-9.31281 8.7636 2.00674 12.2385 12.11031 7.3888 18.76891-2.7432 3.7672-5.4605 8.397-8.1904 12.1746-.4457.6176-.898 1.2274-1.4159 1.9402h12.2674v.0246h11.8741l-4.0587-4.0588z"/><path d="m72.3389 41.0075h-36.0537c.2573-.3707.4309-.6312.6145-.8854 4.4007-6.1063 8.811-13.0482 13.231-19.1403 1.1209-1.484 1.6874-3.3129 1.602-5.1707-.2118-3.9905-3.4497-7.15125-7.4442-7.26686-3.9991-.15752-7.4327 2.81866-7.8449 6.79946-.1663 2.1066-.0847 4.2346-.0958 6.3529-.0029.0624-.0018.1158.003.1611v3.3009l4.0635-5.8329v-.7439l-.0198.0151.0182-.0167c.0041-1.8452-.0182-.5963.0221-2.4408-.0243-1.3926.8052-2.6589 2.0915-3.1929 1.2667-.6344 2.7916-.4356 3.8534.502.0032.0025.0061.0052.0093.0077 1.5346 1.2752 1.7451 3.5531.4698 5.0877-5.9972 8.3042-11.994 17.4511-17.9912 25.7555-.1537.2129-.2891.4387-.4609.7001h47.9243z"/></g></svg>